<?xml version="1.0" standalone="no"?>
<!DOCTYPE svg PUBLIC "-//W3C//DTD SVG 20010904//EN"
 "http://www.w3.org/TR/2001/REC-SVG-20010904/DTD/svg10.dtd">
<svg version="1.0" xmlns="http://www.w3.org/2000/svg"
 width="551.000000pt" height="551.000000pt" viewBox="0 0 551.000000 551.000000"
 preserveAspectRatio="xMidYMid meet">

<g transform="translate(0.000000,551.000000) scale(0.100000,-0.100000)"
fill="#000000" stroke="none">
<path d="M2262 4140 l-304 -5 -140 -244 c-84 -145 -136 -246 -130 -250 6 -3
250 -143 542 -311 293 -168 534 -310 536 -316 5 -12 -205 -384 -217 -384 -4 0
-252 140 -550 311 -451 260 -543 309 -553 298 -7 -8 -74 -121 -150 -252 l-136
-238 408 -694 407 -694 288 -1 287 0 0 208 c0 115 3 398 7 630 l6 422 225 0
225 0 -8 -625 -7 -625 300 0 300 0 397 691 c219 380 398 697 398 703 0 17
-284 497 -291 492 -4 -2 -249 -144 -544 -315 -295 -171 -541 -311 -545 -311
-11 0 -218 359 -218 378 0 8 227 146 537 326 296 171 538 315 539 319 1 5 -63
118 -142 253 l-143 244 -511 -2 c-280 -2 -646 -5 -813 -8z"/>
</g>
</svg>
